<?xml version="1.0" standalone="no"?><!DOCTYPE svg PUBLIC "-//W3C//DTD SVG 1.1//EN" "http://www.w3.org/Graphics/SVG/1.1/DTD/svg11.dtd"><svg t="1701538516452" class="icon" viewBox="0 0 1024 1024" version="1.1" xmlns="http://www.w3.org/2000/svg" p-id="8190" xmlns:xlink="http://www.w3.org/1999/xlink" width="128" height="128"><path d="M492.278309 522.176881c-30.346525-20.862674-61.554037-40.463367-92.244557-60.809049-3.753941-2.521961-7.67988-6.103905-9.513852-10.143841-19.600693-42.985328-38.916391-86.112653-57.972093-129.297977-5.359916-12.206809-13.926782-21.004671-24.959609-27.939563-23.525632-14.787769-50.234214-17.681723-76.826798-17.366729-31.693504 0.343995-63.30201 3.696942-94.996514 5.272918-27.194575 1.346979-49.059232 12.866799-61.98403 36.279432-22.065655 40.032374-42.124341 81.038732-62.986015 121.703096-11.433821 22.35165-12.064811 45.335291-4.097936 69.090919 6.933892 20.776675 13.323792 41.723347 18.855705 62.899016 6.104904 23.556631 10.659833 47.483257 16.477742 71.125888 3.637943 14.930766 12.493805 21.950657 26.649584 22.897641 16.735738 1.059983 26.393587-4.441931 32.439492-19.1137 5.588913-13.640787 6.647896-27.596568 3.237949-42.039343-7.793878-33.041483-15.847752-65.966968-22.839642-99.179448-2.290964-10.917829-5.559913-24.30062-1.461977-33.385478 9.055858-19.973688 22.495648-37.969406 34.101466-56.769112 0.829987 0.344995 1.575975 0.65999 2.348963 1.002985 0 1.89197 0.057999 3.81194 0 5.70291-1.89097 101.586411-2.063968 203.28782-6.3899 304.818232-2.950954 69.376915-11.806815 138.495833-17.967719 207.758749-1.459977 16.735738-4.097936 33.500476-3.867939 50.178215 0.286996 19.715692 14.012781 34.271464 31.9795 37.196418 24.587615 4.067936 47.426258-12.610803 51.697191-37.827408 2.291964-13.467789 4.813925-26.879579 6.705895-40.405368 9.312854-65.967968 18.712707-131.934936 27.624568-197.957903 3.237949-23.699629 5.244918-47.569256 7.823877-71.354883 5.329917 81.469725 2.865955 162.624456-5.243918 243.636188-2.205965 22.694645-5.387916 45.420289-6.3909 68.172933-0.859987 19.745691 9.915845 32.868486 26.765582 36.45143 19.600693 4.210934 37.68241-3.409947 45.534287-20.662677 4.182935-9.082858 7.709879-19.024702 8.883861-28.941547 7.735879-65.481976 17.593725-130.903952 21.292667-196.698923 5.586913-99.894437 6.704895-199.962872 9.684849-300.032306 0.114998-3.20895 0.343995-6.504898 0.516992-9.742847 7.592881 9.055858 12.980797 18.683708 19.083701 27.825564 4.355932 6.504898 8.454868 14.385775 14.72977 18.310714 37.970406 23.584631 76.05481 46.940266 115.142198 68.546928 10.029843 5.559913 24.243621 7.221887 35.734441 5.502914 19.542694-2.807956 33.757472-17.825721 18.139716-39.831377-6.736895-9.628849-15.96375-18.196715-25.706597-24.873611m515.499935-86.428648c-18.139716-35.275448-36.194434-70.550896-54.103154-105.942343-15.073764-29.916532-38.085404-46.165278-72.530865-48.400242-43.384321-2.836956-86.626645-8.710864-130.011966-1.31898-24.27262 4.125935-47.885251 12.14981-59.320072 34.989453-21.491664 42.727332-39.917376 87.028638-60.034061 130.472959-2.837956 6.046905-6.762894 12.550804-11.979812 16.189746-27.823565 18.970703-56.22312 36.996421-84.39268 55.393134-2.692958 1.777972-5.329917 3.667943-8.623865 5.930907 12.034812 6.533898 19.141701 15.618756 20.545678 27.539569 1.28998 11.203825 0.229996 22.752644 0.229997 35.506445 37.567412-21.836658 75.107825-43.672317 112.675237-65.451976 12.724801-7.335885 22.125654-17.652724 28.887548-30.748519 4.212934-8.195872 9.539851-15.846752 14.357775-23.69963 2.004969 3.295948 2.120967 5.703911 2.177966 8.166873 0.716989 43.186324 1.231981 86.370649 2.005969 129.585972 2.119967 114.309212 8.022874 228.448426 24.759613 341.781653 2.692958 18.369713 6.331901 36.911423 12.379806 54.479148 6.532898 18.824705 25.702598 26.934579 46.079279 22.635646 17.191731-3.581944 26.935579-16.850736 27.279573-37.253417 0.113998-4.46793 0.113998-8.93986-0.284995-13.324792-4.098936-43.614318-10.317839-87.085638-11.979813-130.814953-2.061968-55.480132-0.457993-111.044263-0.457993-166.607394 0.227996 0 0.513992-0.059999 0.801988-0.059999 3.237949 29.258542 5.75991 58.689082 9.885845 87.832626 10.373838 74.13284 21.349666 148.180682 32.439493 222.256523 3.17995 20.890673 23.296636 38.257401 42.78233 38.3724 20.146685 0.115998 36.107435-12.14981 40.034374-32.495492 1.746973-9.169857 1.689974-19.140701 0.342995-28.425555-12.319807-85.568661-20.546679-171.597315-23.353635-257.965965-3.037952-93.619535-3.17995-187.355069-4.527929-281.061602-0.056999-2.406962 0-4.757926 0-7.106889 12.321807 15.474758 22.122654 32.038499 32.869486 47.94225 5.215918 7.766878 6.3899 15.617756 5.215918 24.357619-0.802987 5.931907-1.747973 11.920814-3.095952 17.738722-7.505883 32.783487-15.014765 65.538975-22.781643 98.233463-3.638943 15.416759-2.347963 30.347525 4.299933 44.649302 4.585928 9.911845 12.15181 15.930751 23.468632 16.789737 21.349666 1.606975 33.385478-8.680864 36.45143-30.975515 1.404978-10.346838 2.406962-20.834674 5.215919-30.864517 8.683864-31.178512 17.25173-62.412024 27.595568-93.018545 8.849862-26.304588 7.275886-50.891204-5.303917-75.306822M196.199941 236.300353c64.447992-0.227996 117.205166-53.586162 117.033169-118.322149C313.061112 52.614227 260.275938-0.056949 195.024959 0.00005 130.003976 0.058049 76.760809 53.301216 76.816808 118.208201c0.058999 65.251979 53.70316 118.322149 119.383133 118.093152m628.004175 0c65.678972 0.229996 119.326133-52.899172 119.326133-118.149151C943.530249 53.186218 890.344081 0.058049 825.322098 0.00005 760.042119-0.056949 707.286945 52.614227 707.114948 117.978204c-0.113998 64.735987 52.642176 118.094152 117.088168 118.322149" p-id="8191"></path></svg>